# xmcd
#
# Track frame offsets:
# 150
# 14695
# 29987
# 42640
# 57184
# 68982
# 88744
# 100289
# 119152
# 131471
# 154058
#
# Disc length: 2267 seconds
#
#
# Revision: 0
# Processed by: cddbd v1.5.1PL0 Copyright (c) Steve Scherf et al.
# Submitted via: FreeRIP 2.53 
#
DISCID=a608d90b
DTITLE=The Blue Monday Band - Highways
DYEAR=2005
DGENRE=Blues
TTITLE0=Highways
TTITLE1=Mr Dictator
TTITLE2=Baby, Stop Your Wining
TTITLE3=Never Enough
TTITLE4=Spanish Blues
TTITLE5=Inner You
TTITLE6=Why you, Why me
TTITLE7=Half Time Shuffle
TTITLE8=Big Wheel
TTITLE9=Rain
TTITLE10=Some Other Way
EXTD=BluesfestRadio.com
EXTT0=
EXTT1=
EXTT2=
EXTT3=
EXTT4=
EXTT5=
EXTT6=
EXTT7=
EXTT8=
EXTT9=
EXTT10=
PLAYORDER=
